/* XPM */
static char * ac_cautions_xpm[] = {
"16 16 3 1",
" 	c None",
".	c #1700A4",
"+	c #FFF716",
"       ..       ",
"       ..       ",
"      ....      ",
"      .++.      ",
"     ..++..     ",
"     .++++.     ",
"    ..+..+..    ",
"    .++..++.    ",
"   ..++..++..   ",
"   .+++..+++.   ",
"  ..+++..+++..  ",
"  .++++++++++.  ",
" ..++++..++++.. ",
" .+++++..+++++. ",
"..++++++++++++..",
"................"};
