/* XPM */
static char * ac_evaluation_xpm[] = {
"16 16 42 1",
" 	c None",
".	c #81D0D1",
"+	c #C5E4E4",
"@	c #F3FCFB",
"#	c #B2FBEC",
"$	c #A9FBF3",
"%	c #3DC6DA",
"&	c #37BBCF",
"*	c #8CFDE6",
"=	c #30B2C6",
"-	c #63F0EA",
";	c #30C4DA",
">	c #004596",
",	c #2E609E",
"'	c #22BDCB",
")	c #1DAEC3",
"!	c #70F0EE",
"~	c #55C8DA",
"{	c #00C1DF",
"]	c #69DADE",
"^	c #27DDE9",
"/	c #1AABC1",
"(	c #0042A1",
"_	c #00BFDF",
":	c #7FE2E7",
"<	c #003E9B",
"[	c #145099",
"}	c #71FAE8",
"|	c #7FF0EE",
"1	c #2BDCE7",
"2	c #085AAE",
"3	c #70C9CC",
"4	c #43EFF1",
"5	c #58F0F2",
"6	c #78DFE6",
"7	c #003E8E",
"8	c #3CE6EC",
"9	c #009CB5",
"0	c #003F8F",
"a	c #26B9C9",
"b	c #003999",
"c	c #003896",
"       ..       ",
"       ++       ",
"  +@   @@   #   ",
"  @@$%$$$$&#*=  ",
"   $$$$$$$#*-   ",
"   ;$$>>,'*-)   ",
"   $$>    '!~   ",
"{@$$$>    ']^^/(",
"_@$$$,    ':^^/<",
" [[}}'    '|122 ",
"   [**''''|112  ",
"  3**4566|1112  ",
" 3**4788829210  ",
"   47  88   0   ",
"   7   aa       ",
"       bc       "};
