/* XPM */
static char * ac_infos_xpm[] = {
"16 16 4 1",
" 	c None",
".	c #1B449F",
"+	c #1B44A0",
"@	c #FFFFFF",
"       .+       ",
"    ........    ",
"   ..........   ",
"  ............  ",
" ......@@...... ",
" ......@@...... ",
" .............. ",
"+......@@......+",
"+......@@......+",
" ......@@...... ",
" ......@@...... ",
" ......@@...... ",
"  ............  ",
"   ..........   ",
"    ........    ",
"       .+       "};
