/* XPM */
static char * ac_inconclusive_xpm[] = {
"16 16 3 1",
" 	c None",
".	c #878787",
"+	c #FFFFFF",
"       .        ",
"    ........    ",
"   ..........   ",
"  ....++++....  ",
" ....++++++.... ",
" ....++..++.... ",
" ........++.... ",
" .......++..... ",
" ......++...... ",
" ......++...... ",
" .............. ",
" ......++...... ",
"  .....++.....  ",
"   ..........   ",
"    ........    ",
"       .        "};
