/* XPM */
static char * ac_off_xpm[] = {
"16 16 33 1",
" 	c None",
".	c #959595",
"+	c #B7B7B7",
"@	c #D8D8D8",
"#	c #C6C6C6",
"$	c #C3C3C3",
"%	c #7C7C7C",
"&	c #717171",
"*	c #BCBCBC",
"=	c #6A6A6A",
"-	c #AAAAAA",
";	c #797979",
">	c #010101",
",	c #232323",
"'	c #6F6F6F",
")	c #626262",
"!	c #ADADAD",
"~	c #868686",
"{	c #6D6D6D",
"]	c #999999",
"^	c #8D8D8D",
"/	c #5D5D5D",
"(	c #000000",
"_	c #A4A4A4",
":	c #111111",
"<	c #B5B5B5",
"[	c #B1B1B1",
"}	c #161616",
"|	c #8A8A8A",
"1	c #A2A2A2",
"2	c #A7A7A7",
"3	c #A0A0A0",
"4	c #4B4B4B",
"       ..       ",
"       ++       ",
"  +@   @@   #   ",
"  @@$%$$$$&#*=  ",
"   $$$$$$$#*-   ",
"   ;$$>>,'*-)   ",
"   $$>    '!~   ",
"{@$$$>    ']^^/(",
"=@$$$,    '_^^/(",
" ::<<'    '[^}} ",
"   :**''''[^^}  ",
"  |**1233[^^^}  ",
" |**1(]]]}4}^(  ",
"   1(  ]]   (   ",
"   (   {{       ",
"       ((       "};
