/* XPM */
static char * arrow_right_green_xpm[] = {
"24 24 2 1",
" 	c None",
".	c #008000",
"                        ",
"                        ",
"                        ",
"                        ",
"                        ",
"                        ",
"                        ",
"                        ",
"                   .    ",
"                   ..   ",
"......................  ",
"....................... ",
"........................",
"....................... ",
"                   ...  ",
"                   ..   ",
"                   .    ",
"                        ",
"                        ",
"                        ",
"                        ",
"                        ",
"                        ",
"                        "};
