/* XPM */
static char * blue_side_tri_xpm[] = {
"30 10 2 1",
" 	c None",
".	c #639AFF",
"         ...                  ",
"         ......               ",
"         .........            ",
"         ...   ......         ",
"         ...      ......      ",
"         ...      ......      ",
"         ...   ......         ",
"         .........            ",
"         ......               ",
"         ...                  "};
