/* XPM */
static char * box_x_red_xpm[] = {
"30 10 5 1",
"_	c #000000",
".	c #80262D",
"+	c #FF2E2E",
"@	c #C73B46",
"#	c #FFFFFF",
"+++++++++++++++++++++++++++++#",
"+@@@@@@@@@@##_@@@####_@@@@@@..",
"+@@@@@@@@@@@##_@###__@@@@@@@..",
"+@@@@@@@@@@@@####__@@@@@@@@@..",
"+@@@@@@@@@@@@###_@@@@@@@@@@@..",
"+@@@@@@@@@@####_#_@@@@@@@@@@..",
"+@@@@@@@@@####_@##_@@@@@@@@@..",
"+@@@@@@@@@###_@@@##_@@@@@@@@..",
"+.............................",
"#............................."};
