/* XPM */
static char * box_x_green_xpm[] = {
"30 10 5 1",
".	c #00C97B",
"+	c #FFFFFF",
"@	c #0E8758",
"#	c #000000",
"$	c #055C3A",
".............................+",
".@@@@@@@@@@++#@@@@+++#@@@@@@$#",
".@@@@@@@@@@@++#@+++##@@@@@@@$#",
".@@@@@@@@@@@@++++##@@@@@@@@@$#",
".@@@@@@@@@@@@+++#@@@@@@@@@@@$#",
".@@@@@@@@@@++++#+#@@@@@@@@@@$#",
".@@@@@@@@@++++#@++#@@@@@@@@@$#",
".@@@@@@@@@+++#@@@++#@@@@@@@@$#",
".$$$$$$$$$$$$$$$$$$$$$$$$$$$$#",
"+#############################"};
