/* XPM */
static char * check_yellow_short_xpm[] = {
"30 10 6 1",
" 	c None",
".	c #030300",
"+	c #5C5C5C",
"@	c #8C8C8C",
"#	c #E3DD35",
"$	c #FFF600",
"                   +++        ",
"                  +$#+        ",
"                 +$$+@        ",
"                +$$+@         ",
"          ++@  +$$+@          ",
"          +$$+@$$+@           ",
"           +$$+$#+            ",
"            +$$$+@            ",
"             +$+@             ",
"              +@              "};
