/* XPM */
static char * cover_warn_c_xpm[] = {
"30 10 6 1",
"_	c None",
".	c #000000",
"+	c #164587",
"@	c #216ACF",
"#	c #FFE100",
"$	c #FFFFFF",
"...##@@@@@@@@@@@@@@@@@@@...##_",
"..###@@@@@@@@$$$$$@@@@@@..###.",
".###.@@@@@@@$$...$.@@@@@.###..",
"###..@@@@@@@$$.@@@.@@@@@###...",
"##...@@@@@@@$$.@@@@@@@@@##....",
"#...#@@@@@@@$$.@@@@@@@@@#...#.",
"...##@@@@@@@$$.@@$@@@@@@...##.",
"..###@@@@@@@@$$$$@.@@@@@..###.",
".###.++++++++.....++++++.###..",
"_............................."};
