/* XPM */
static char * covered_short_xpm[] = {
"30 10 6 1",
"_	c None",
".	c #030300",
"+	c #00FF00",
"@	c #5C5C5C",
"#	c #608A61",
"$	c #8C8C8C",
"_____________________#+_______",
"___________________++..@______",
"__________________++.@________",
"_________________++.@_________",
"__________+#____++.@__________",
"__________#++#_++.@___________",
"___________#++#++@$___________",
"____________#+++.$____________",
"_____________#+.@_____________",
"______________@@______________"};
