/* XPM */
static char * fcov_no_wave_xpm[] = {
"30 10 77 1",
"Z	c #000000",
".	c #164587",
"+	c #216ACF",
"@	c #2A70D1",
"#	c #2C71D1",
"$	c #2C72D1",
"%	c #2C72D2",
"&	c #3275D2",
"*	c #3276D2",
"=	c #3779D3",
"-	c #3779D4",
";	c #3B7BD4",
">	c #3A7CD5",
",	c #3B7CD5",
"'	c #2982FF",
")	c #4281D6",
"!	c #4381D6",
"~	c #4381D7",
"{	c #4B86D8",
"]	c #4B87D8",
"^	c #4D88D8",
"/	c #4D88D9",
"(	c #4E88D9",
"_	c #548CDA",
":	c #588FDB",
"<	c #598FDB",
"[	c #5890DB",
"}	c #5C92DC",
"|	c #5D92DC",
"1	c #6397DD",
"2	c #6497DD",
"3	c #6497DE",
"4	c #6598DE",
"5	c #6698DD",
"6	c #6E9DE0",
"7	c #6E9EE0",
"8	c #6F9EE0",
"9	c #77A3E1",
"0	c #77A3E2",
"a	c #7AA5E2",
"b	c #7AA6E3",
"c	c #7FA9E3",
"d	c #7FA9E4",
"e	c #84ADE4",
"f	c #85ADE4",
"g	c #85ADE5",
"h	c #87AFE6",
"i	c #88AFE6",
"j	c #90B4E7",
"k	c #90B5E7",
"l	c #99BAE9",
"m	c #99BBE8",
"n	c #9BBCE9",
"o	c #A1C0EA",
"p	c #A1C0EB",
"q	c #A6C3EC",
"r	c #A6C4EC",
"s	c #A9C6EC",
"t	c #AAC6ED",
"u	c #B1CBEE",
"v	c #B2CBEF",
"w	c #BBD1F0",
"x	c #BAD2F0",
"y	c #BCD2F1",
"z	c #BCD3F1",
"A	c #C3D7F2",
"B	c #C7DAF3",
"C	c #CCDDF4",
"D	c #D3E1F6",
"E	c #D3E2F5",
"F	c #D4E3F6",
"G	c #DDE8F8",
"H	c #DEE8F8",
"I	c #E9F0FA",
"J	c #EEF4FB",
"K	c #F4F8FD",
"L	c #FFFFFF",
"'''''''''''''''''''''''''''''L",
"'unf8[!$+++++LLLLL++++++;_7i.Z",
"'zqja3(=++++LLZZZLZ++++*{4dm.Z",
"'Bung8:!#+++LLZ+++Z+++@!|9ks.Z",
"'Eyqkb1/-+++LLZ+++++++>_6hox.Z",
"'HBung7<)%++LLZ++++++&]5clvC.Z",
"'IDyrka2^-++LLZ++L++@~}0jtAG.Z",
"'KHBune8<)%++LLLL+Z+,_7hpwFJ.Z",
"'.............ZZZZ...........Z",
"L                             "};
