/* XPM */
static char * fcov_xpm[] = {
"30 10 5 1",
"_	c #000000",
".	c #164587",
"+	c #216ACF",
"@	c #2982FF",
"#	c #FFFFFF",
"@@@@@@@@@@@@@@@@@@@@@@@@@@@@@#",
"@++++++++++++#####++++++++++._",
"@+++++++++++##___#_+++++++++._",
"@+++++++++++##_+++_+++++++++._",
"@+++++++++++##_+++++++++++++._",
"@+++++++++++##_+++++++++++++._",
"@+++++++++++##_++#++++++++++._",
"@++++++++++++####+_+++++++++._",
"@.............____..........._",
"#_____________________________"};
