/* XPM */
static char *fired_xpm[] = {
/* columns rows colors chars-per-pixel */
"30 10 8 1",
"_ c #000000",
". c #80262D",
"X c #FF2E2E",
"o c #C73B46",
"O c #FFFFFF",
"+ c #000000",
"@ c #000000",
"# c #000000",
/*_pixels_*/
"XXXXXXXXXXXXXXXXXXXXXXXXXXXXXO",
"XoooooooooooOOOOOOoooooooooo._",
"XooooooooooooOO__O_ooooooooo._",
"XooooooooooooOO_Oo_ooooooooo._",
"XooooooooooooOOOO_oooooooooo._",
"XooooooooooooOO_O_oooooooooo._",
"XooooooooooooOO_o_oooooooooo._",
"XoooooooooooOOOOOooooooooooo._",
"X............_____..........._",
"O_____________________________"
};
