/* XPM */
static char * fired_no_wave_xpm[] = {
"30 10 87 1",
"Z	c #000000",
".	c #80262D",
"+	c #C73B46",
"@	c #C83F49",
"#	c #C8414C",
"$	c #C9414C",
"%	c #CA424D",
"&	c #C9434D",
"*	c #FF2E2E",
"=	c #C9454F",
"-	c #CA4852",
";	c #CB4A54",
">	c #CC4A54",
",	c #CC4B55",
"'	c #CD4F59",
")	c #CE515B",
"!	c #CD525B",
"~	c #CE555F",
"{	c #CF555F",
"]	c #CF5761",
"^	c #CF5963",
"/	c #D05B64",
"(	c #D15F67",
"_	c #D2606A",
":	c #D2616A",
"<	c #D2626B",
"[	c #D3646E",
"}	c #D36870",
"|	c #D46870",
"1	c #D46871",
"2	c #D46971",
"3	c #D56B74",
"4	c #D56E76",
"5	c #D67077",
"6	c #D67078",
"7	c #D77279",
"8	c #D7747D",
"9	c #D8777F",
"0	c #D9787F",
"a	c #D97B83",
"b	c #D97C83",
"c	c #DA7E86",
"d	c #DB7E86",
"e	c #DA7F86",
"f	c #DB8288",
"g	c #DC858B",
"h	c #DC868D",
"i	c #DD868D",
"j	c #DD888E",
"k	c #DE8B92",
"l	c #DE8E94",
"m	c #DF8E95",
"n	c #E09298",
"o	c #E0959B",
"p	c #E1959B",
"q	c #E1969B",
"r	c #E2999E",
"s	c #E39BA1",
"t	c #E39DA3",
"u	c #E4A2A7",
"v	c #E5A4A9",
"w	c #E6A5AA",
"x	c #E6A8AD",
"y	c #E7ABB0",
"z	c #E7ACB0",
"A	c #E7ACB1",
"B	c #E8ACB1",
"C	c #EAB3B8",
"D	c #E9B4B8",
"E	c #EAB5B9",
"F	c #EBB8BD",
"G	c #EBBBBF",
"H	c #EBBCBF",
"I	c #EEC2C6",
"J	c #EEC3C6",
"K	c #EFC8CC",
"L	c #EFCACD",
"M	c #F0CCCE",
"N	c #F2D1D5",
"O	c #F4D9DB",
"P	c #F4DADB",
"Q	c #F5DCDD",
"R	c #F7E1E3",
"S	c #F9E8E9",
"T	c #FBF0F1",
"U	c #FDF7F8",
"V	c #FFFFFF",
"*****************************V",
"*Bod1)++++++VVVVVV++++++#{|a.Z",
"*Gvl9:;++++++VVZZVZ++++@![0k.Z",
"*LDti6^%+++++VVZV+Z++++'<8js.Z",
"*OIzpe})+++++VVVVZ++++,(7gry.Z",
"*SNGvl0_>++++VVZVZ+++-/4foxH.Z",
"*URLCth5^&+++VVZ+Z++=]3cnwFM.Z",
"*VTPJAqc2)++VVVVV++$~|bmuEKQ.Z",
"*............ZZZZZ........... ",
"VZZZZZZZZZZZZZZZZZZZZZZZZZZZZZ"};
