/* XPM */
static char * green_check_xpm[] = {
"16 16 7 1",
"_  c None",
".	c #030300",
"+	c #414141",
"@	c #0063DE",
"#	c #777070",
"$	c #46FF4A",
"%	c #FFFFFF",
"________________",
"_____________%%_",
"___________%%@..",
"__________%@..._",
"_________%@..___",
"________%@..____",
"__$$$$$%@@.$$$+_",
"__$$$$%@@.#$$$+_",
"@%%$$%@@.#$$$$+_",
"_@@%$%@..$$$$$+_",
"__@@%@@.$$$$$$+_",
"__@@@@..$$$$$$+_",
"__$@@@.$$$$$$$+_",
"___@@..++++++++_",
"____..__________",
"________________"};
