/* XPM */
static char * maxrad_xpm[] = {
"30 10 5 1",
"_	c #000000",
".	c #068096",
"+	c #0ADAFF",
"@	c #D6FAFF",
"#	c #FFFFFF",
"@@@@@@@@@@@@@@@@@@@@@@@@@@@@@#",
"@+++++++++++_____+++++++++++._",
"@++++++++++++__#__++++++++++._",
"@++++++++++++__#__#+++++++++._",
"@++++++++++++____##+++++++++._",
"@++++++++++++__#__++++++++++._",
"@++++++++++++__#__#+++++++++._",
"@+++++++++++_____##+++++++++._",
"@............#####..........._",
"#_____________________________"};
