/* XPM */
static char * maybe_vac_p_xpm[] = {
"30 10 5 1",
"_	c #000000",
".	c #008200",
"+	c #00FF00",
"@	c #FFE100",
"#	c #FFFFFF",
"___@@+++++++++++++++++++___@@#",
"__@@@+++++++_____+++++++__@@@_",
"_@@@_++++++++__#__++++++_@@@__",
"@@@__++++++++__#__#+++++@@@___",
"@@___++++++++__#__#+++++@@____",
"@___@++++++++____##+++++@___@_",
"___@@++++++++__###++++++___@@_",
"__@@@+++++++____++++++++__@@@_",
"_@@@_........####......._@@@__",
"#_____________________________"};
