/* XPM */
static char * pointer_xpm[] = {
"16 16 76 1",
"_	c None",
".	c #0127B3",
"+	c #0127B7",
"@	c #0128B9",
"#	c #022ABC",
"$	c #032FBF",
"%	c #022FC2",
"&	c #0335C5",
"*	c #0535C1",
"=	c #0637C2",
"-	c #0638C6",
";	c #093AC7",
">	c #093BC9",
",	c #083BCC",
"'	c #073DC7",
")	c #073CD3",
"!	c #063CD6",
"~	c #083FCC",
"{	c #0940CB",
"]	c #0740D1",
"^	c #0841D4",
"/	c #0842D6",
"(	c #0543DF",
"Z	c #0743DD",
":	c #0548DF",
"<	c #0748DB",
"[	c #0749DF",
"}	c #0649E2",
"|	c #064AE4",
"1	c #074DEB",
"2	c #064FE4",
"3	c #084FE0",
"4	c #0350ED",
"5	c #0650E6",
"6	c #0550E9",
"7	c #0850E2",
"8	c #0750E5",
"9	c #0351EF",
"0	c #0551EB",
"a	c #0752EB",
"b	c #0457F0",
"c	c #0659F0",
"d	c #065AF4",
"e	c #025DF4",
"f	c #065CF8",
"g	c #025FFA",
"h	c #0460F8",
"i	c #0360FB",
"j	c #0668FC",
"k	c #0F68FB",
"l	c #086FFC",
"m	c #1074FC",
"n	c #0E79FE",
"o	c #1E7CFC",
"p	c #247FFC",
"q	c #1789FD",
"r	c #3090FC",
"s	c #2796FD",
"t	c #3291FC",
"u	c #3C92FC",
"v	c #3C96FC",
"w	c #3D9CFD",
"x	c #33A5FD",
"y	c #419EFD",
"z	c #43A3FD",
"A	c #4FA5FD",
"B	c #4FA9FD",
"C	c #55ACFD",
"D	c #57ADFD",
"E	c #4DB5FD",
"F	c #69B2FD",
"G	c #71B9FD",
"H	c #7BBEFD",
"I	c #91C4FD",
"J	c #A1CCFD",
"K	c #B6D5FC",
"________________",
"_________7$_____",
"_________2u$____",
"_________5vA*___",
"__[38acfkpwBF=__",
"__/Z|adkoryCGI-_",
"__/Z|1dkotzDHJK'",
"__;;;;,!:9glqxE&",
"__;;;;>)(4ejns%_",
"__^^^^^<}6bim#__",
"_________]6h@___",
"_________~0+____",
"_________{._____",
"________________",
"________________",
"________________"};
