/* XPM */
static char * red_x_short_xpm[] = {
"30 10 3 1",
"_	c None",
".	c #030300",
"+	c #800000",
"_________+++______++..________",
"_________++++____++.._________",
"__________.+++__++..__________",
"____________+++++.____________",
"_____________+++..____________",
"____________+++++_____________",
"___________+++..++____________",
"__________+++..__++___________",
"_________+++..____+.__________",
"_________++..______+._________"};
