/* XPM */
static char *tick_short_xpm[] = {
/* columns rows colors chars-per-pixel */
"16 10 42 1",
"_ c #366431",
". c #3B7F35",
"X c #42753B",
"o c #44783D",
"O c #42883B",
"+ c #43883C",
"@ c #4C8545",
"# c #4B8844",
"$ c #55924D",
"% c #509849",
"& c #5E9F55",
"* c #639F59",
"= c #5CA252",
"- c #5FA756",
"; c #5FA856",
": c #64AC5B",
"> c #68B05F",
", c #6BB160",
"< c #6CB562",
"1 c #6DB463",
"2 c #72B767",
"3 c #73BA68",
"4 c #73BB69",
"5 c #74BD6B",
"6 c #76BD6C",
"7 c #78BC6D",
"8 c #7CC071",
"9 c #7EC472",
"0 c #7FC374",
"q c #7FC975",
"w c #83C676",
"e c #83C777",
"r c #82C977",
"t c #84C879",
"y c #84CB79",
"u c #85CB7B",
"i c #86CA7B",
"p c #87CD7C",
"a c #8ACE7F",
"s c #8DCE80",
"d c #8DD080",
"f c None",
/*_pixels_*/
"fffffffffff_3fff",
"ffffffffff_o72ff",
"fffffffff_@7d_ff",
"ffffffff_$wa_fff",
"ff#*fff_&wa_ffff",
"f=ws;f_>t9_fffff",
"fX<tt44r5_ffffff",
"fff-6ur<_fffffff",
"ffff%>:+ffffffff",
"fffff+.fffffffff"
};
