/* XPM */
static char *ub_short_xpm[] = {
/* columns rows colors chars-per-pixel */
"30 10 3 1",
"_ c #008080",
". c #FFFFFF",
"X c None",
/*_pixels_*/
"XXXXXXXXX__XXX__XXXXXXXXXXXXXX",
"XXXXXXXXX__XXX__XXXXXXXXXXXXXX",
"XXXXXXXXX__XXX__XXXXXXXXXXXXXX",
"XXXXXXXXX__XXX__X___XXXXXXXXXX",
"XXXXXXXXX__XXX__X_XX_XXXXXXXXX",
"XXXXXXXXX__XXX__X_XX_XXXXXXXXX",
"XXXXXXXXX__XXX__X___XXXXXXXXXX",
"XXXXXXXXX___X___X_XX_XXXXXXXXX",
"XXXXXXXXXX_____XX_XX_XXXXXXXXX",
"XXXXXXXXX.X___XXX___XXXXXXXXXX"
};
