/* XPM */
static char *ut_short_xpm[] = {
/* columns rows colors chars-per-pixel */
"30 10 3 1",
"_ c #008080",
". c #FFFFFF",
"X c None",
/*_pixels_*/
"XXXXXXXXX__XXX__XXXXXXXXXXXXXX",
"XXXXXXXXX__XXX__XXXXXXXXXXXXXX",
"XXXXXXXXX__XXX__XXXXXXXXXXXXXX",
"XXXXXXXXX__XXX__X_____XXXXXXXX",
"XXXXXXXXX__XXX__XXX_XXXXXXXXXX",
"XXXXXXXXX__XXX__XXX_XXXXXXXXXX",
"XXXXXXXXX__XXX__XXX_XXXXXXXXXX",
"XXXXXXXXX___X___XXX_XXXXXXXXXX",
"XXXXXXXXXX_____XXXX_XXXXXXXXXX",
"XXXXXXXXX.X___XXXXX_XXXXXXXXXX"
};
