/* XPM */
static char *uu_short_xpm[] = {
/* columns rows colors chars-per-pixel */
"30 10 2 1",
"_ c #008080",
". c None",
/*_pixels_*/
"............__...__...........",
"............__...__...........",
"............__...__...........",
"............__...__...........",
"............__...__...........",
"............__...__...........",
"............__...__...........",
"............___.___...........",
"............._____............",
"..............___............."
};
