/* XPM */
static char * vac_bound_xpm[] = {
"30 10 6 1",
"_	c #000000",
".	c #FFBB00",
"+	c #FFE100",
"@	c #FFFF00",
"#	c #0ADAFF",
"$	c #FFFFFF",
"___##@@@@@@@@@@@@@@@@@@@___##$",
"__###++++++___+___++++++__###_",
"_###_+++++++__$__$$+++++_###__",
"###__+++++++__$__$++++++###___",
"##___+++++++__$__$++++++##____",
"#___#++++++++_$_$$++++++#___#_",
"___##++++++++___$+++++++___##_",
"__###++++++++___$+++++++__###_",
"_###_.........$$$......._###__",
"$_____________________________"};
