/* XPM */
static char * vacprove_xpm[] = {
"30 10 5 1",
"_	c #000000",
".	c #FFBB00",
"+	c #FFE100",
"@	c #FFFF00",
"#	c #FFFFFF",
"@@@@@@@@@@@@@@@@@@@@@@@@@@@@@#",
"@++++++++++___+___++++++++++._",
"@+++++++++++__#__##+++++++++._",
"@+++++++++++__#__#++++++++++._",
"@+++++++++++__#__#++++++++++._",
"@++++++++++++_#_##++++++++++._",
"@++++++++++++___#+++++++++++._",
"@++++++++++++___#+++++++++++._",
"@.............###............_",
"#_____________________________"};
