/* XPM */
static char *ww_no_wave_short_xpm[] = {
/* columns rows colors chars-per-pixel */
"30 10 33 1",
"_ c #80262D",
". c #FF0000",
"X c #FF2E2E",
"o c #C8414C",
"O c #CD525B",
"+ c #CF555F",
"@ c #D2626B",
"# c #D3646E",
"$ c #D46870",
"% c #D77279",
"& c #D7747D",
"* c #D9787F",
"= c #0000FF",
"- c #D97B83",
"; c #DB8288",
": c #DC858B",
"> c #DD888E",
", c #DE8B92",
"< c #E09298",
"1 c #E0959B",
"2 c #E2999E",
"3 c #E39BA1",
"4 c #E4A2A7",
"5 c #E6A5AA",
"6 c #E6A8AD",
"7 c #E7ABB0",
"8 c #EAB5B9",
"9 c #EBB8BD",
"0 c #EBBCBF",
"q c #EFC8CC",
"w c #F0CCCE",
"e c #F5DCDD",
"r c None",
/*_pixels_*/
"rrrrr==rrrrrrr==rrr.XXXXXrrrrr",
"rrrrr==rrrrrrr==rrr.o+$-_rrrrr",
"rrrrr==rrrrrrr==rrr.O#*,_rrrrr",
"rrrrr==rrrrrrr==rrr.@&>3_rrrrr",
"rrrrr==rrr=rrr==rrr.%:27_rrrrr",
"rrrrr===r===r===rrr.;160_rrrrr",
"rrrrrr=========rrrr.<59w_rrrrr",
"rrrrrr====r====rrrr.48qe_rrrrr",
"rrrrrrr==rrr==rrrrr.48qe_rrrrr",
"rrrrrrr==rrr==rrrrr._____rrrrr"
};
