/* XPM */
static char *ww_short_xpm[] = {
/* columns rows colors chars-per-pixel */
"30 10 2 1",
"_ c #0000FF",
". c None",
/*_pixels_*/
"..............................",
"..........__.......__.........",
"..........__.......__.........",
"..........__.......__.........",
"..........__..._...__.........",
"..........___.___.___.........",
"..........._________..........",
"...........____.____..........",
"............__...__...........",
"............__...__..........."
};
