/* XPM */
static char *x_corrupt_short_xpm[] = {
/* columns rows colors chars-per-pixel */
"16 10 2 1",
"_ c #FF0000",
". c None",
/*_pixels_*/
"....__...___....",
"....___..___....",
"....________....",
".....______.....",
"......____......",
"......____......",
".....______.....",
"....________....",
"....___..___....",
"....__...___...."
};
