/* XPM */
static char *x_corrupt_warnings_xpm[] = {
/* columns rows colors chars-per-pixel */
"16 10 4 1",
"_ c #000000",
". c #FF0000",
"X c #FFE100",
"o c None",
/*_pixels_*/
"..ooo...ooo___XX",
"...oo...ooo__XXX",
"........ooo_XXX_",
"o......ooooXXX__",
"oo....oooooXX___",
"oo....oooooX___X",
"o......oooo___XX",
"........ooo__XXX",
"...oo...ooo_XXX_",
"..ooo...oooooooo"
};
