/* XPM */
static char *x_corrupt_no_wave_xpm[] = {
/* columns rows colors chars-per-pixel */
"16 10 32 1",
"_ c #80262D",
". c #FF0000",
"X c #FF2E2E",
"o c #C8414C",
"O c #CD525B",
"+ c #CF555F",
"@ c #D2626B",
"# c #D3646E",
"$ c #D46870",
"% c #D77279",
"& c #D7747D",
"* c #D9787F",
"= c #D97B83",
"- c #DB8288",
"; c #DC858B",
": c #DD888E",
"> c #DE8B92",
", c #E09298",
"< c #E0959B",
"1 c #E2999E",
"2 c #E39BA1",
"3 c #E4A2A7",
"4 c #E6A5AA",
"5 c #E6A8AD",
"6 c #E7ABB0",
"7 c #EAB5B9",
"8 c #EBB8BD",
"9 c #EBBCBF",
"0 c #EFC8CC",
"q c #F0CCCE",
"w c #F5DCDD",
"e c None",
/*_pixels_*/
"..eee...ee.XXXXX",
"...ee...ee.o+$=_",
"........ee.O#*>_",
"e......eee.@&:2_",
"ee....eeee.%;16_",
"ee....eeee.-<59_",
"e......eee.,48q_",
"........ee.370w_",
"...ee...ee._____",
"..eee...eeeeeeee"
};
