/* XPM */
static char *xc_short_xpm[] = {
/* columns rows colors chars-per-pixel */
"30 10 3 1",
"_ c #800000",
". c #830000",
"X c None",
/*_pixels_*/
"XXXXXXXXX..XXX..XXXXXXXXXXXXXX",
"XXXXXXXXXX.XXX.XXXXXXXXXXXXXXX",
"XXXXXXXXXX..X..XXXXXXXXXXXXXXX",
"XXXXXXXXXXX.X.XXXX..XXXXXXXXXX",
"XXXXXXXXXXX...XXX.XX.XXXXXXXXX",
"XXXXXXXXXXX...XXX_XXXXXXXXXXXX",
"XXXXXXXXXXX.X.XXX.XXXXXXXXXXXX",
"XXXXXXXXXX..X..XX.XXXXXXXXXXXX",
"XXXXXXXXXX.XXX.XX.XX.XXXXXXXXX",
"XXXXXXXXX..XXX..XX__XXXXXXXXXX"
};
