/* XPM */
static char *xe_short_xpm[] = {
/* columns rows colors chars-per-pixel */
"30 10 3 1",
"_ c #800000",
". c #830000",
"X c None",
/*_pixels_*/
"XXXXXXXXX..XXX..XXXXXXXXXXXXXX",
"XXXXXXXXXX.XXX.XXXXXXXXXXXXXXX",
"XXXXXXXXXX..X..XXXXXXXXXXXXXXX",
"XXXXXXXXXXX.X.XXX_...XXXXXXXXX",
"XXXXXXXXXXX...XXX.XXXXXXXXXXXX",
"XXXXXXXXXXX...XXX_XXXXXXXXXXXX",
"XXXXXXXXXXX.X.XXX._.XXXXXXXXXX",
"XXXXXXXXXX..X..XX_XXXXXXXXXXXX",
"XXXXXXXXXX.XXX.XX.XXXXXXXXXXXX",
"XXXXXXXXX..XXX..X.__.XXXXXXXXX"
};
