/* XPM */
static char *xs_short_xpm[] = {
/* columns rows colors chars-per-pixel */
"30 10 2 1",
"_ c #830000",
". c None",
/*_pixels_*/
".........__...__..............",
".........._..._...............",
"..........__.__...............",
"..........._._....__..........",
"...........___..._.._.........",
"...........___..._............",
"..........._._....__..........",
"..........__.__....._.........",
".........._..._.._.._.........",
".........__...__..__.........."
};
