/* XPM */
static char *xt_short_xpm[] = {
/* columns rows colors chars-per-pixel */
"30 10 3 1",
"_ c #800000",
". c #830000",
"X c None",
/*_pixels_*/
"XXXXXXXXX..XXX..XXXXXXXXXXXXXX",
"XXXXXXXXXX.XXX.XXXXXXXXXXXXXXX",
"XXXXXXXXXX..X..XXXXXXXXXXXXXXX",
"XXXXXXXXXXX.X.XXX_._._XXXXXXXX",
"XXXXXXXXXXX...XXXXX_XXXXXXXXXX",
"XXXXXXXXXXX...XXXXX.XXXXXXXXXX",
"XXXXXXXXXXX.X.XXXXX_XXXXXXXXXX",
"XXXXXXXXXX..X..XXXX.XXXXXXXXXX",
"XXXXXXXXXX.XXX.XXXX_XXXXXXXXXX",
"XXXXXXXXX..XXX..XXX.XXXXXXXXXX"
};
